<svg xmlns="http://www.w3.org/2000/svg" viewBox="0 0 7 8" fill="none">
  <path d="M0 4H7L3.5 0L0 4Z" fill="currentColor" />
  <path
    d="M0 6.5C0 6.36739 0.0526785 6.24021 0.146447 6.14645C0.240215 6.05268 0.367392 6 0.5 6H6.5C6.63261 6 6.75979 6.05268 6.85355 6.14645C6.94732 6.24021 7 6.36739 7 6.5V7.5C7 7.63261 6.94732 7.75979 6.85355 7.85355C6.75979 7.94732 6.63261 8 6.5 8H0.5C0.367392 8 0.240215 7.94732 0.146447 7.85355C0.0526785 7.75979 0 7.63261 0 7.5V6.5Z"
    fill="currentColor"
  />
</svg>
