<svg xmlns="http://www.w3.org/2000/svg" viewBox="0 0 17 17" fill="currentColor"><path fill-rule="evenodd" clip-rule="evenodd" d="M8.33987 0.5C3.91242 0.5 0.333252 4.16665 0.333252 8.7028C0.333252 12.3288 2.62655 15.3981 5.80795 16.4844C6.20571 16.5661 6.35141 16.3079 6.35141 16.0908C6.35141 15.9006 6.3383 15.2488 6.3383 14.5696C4.11105 15.0586 3.64725 13.5918 3.64725 13.5918C3.28931 12.6411 2.75897 12.3968 2.75897 12.3968C2.02999 11.8943 2.81207 11.8943 2.81207 11.8943C3.6207 11.9486 4.045 12.7363 4.045 12.7363C4.76071 13.9856 5.91399 13.6326 6.37796 13.4153C6.44417 12.8856 6.65641 12.5189 6.88175 12.3153C5.10536 12.1251 3.23638 11.419 3.23638 8.26813C3.23638 7.3718 3.55432 6.63847 4.05812 6.06814C3.97863 5.86448 3.70018 5.02231 4.13776 3.89515C4.13776 3.89515 4.81381 3.67782 6.33813 4.73715C6.99075 4.55759 7.66379 4.46625 8.33987 4.46548C9.01591 4.46548 9.70506 4.56065 10.3414 4.73715C11.8659 3.67782 12.542 3.89515 12.542 3.89515C12.9796 5.02231 12.7009 5.86448 12.6215 6.06814C13.1385 6.63847 13.4434 7.3718 13.4434 8.26813C13.4434 11.419 11.5744 12.1115 9.78471 12.3153C10.0764 12.5733 10.3282 13.0621 10.3282 13.8363C10.3282 14.9363 10.3151 15.8191 10.3151 16.0906C10.3151 16.3079 10.4609 16.5661 10.8585 16.4846C14.0399 15.3979 16.3332 12.3288 16.3332 8.7028C16.3463 4.16665 12.7541 0.5 8.33987 0.5Z"/></svg>
