<svg xmlns="http://www.w3.org/2000/svg" viewBox="0 0 14 15" fill="none">
  <path
    fill-rule="evenodd"
    clip-rule="evenodd"
    d="M7.81546 1.13128C8.053 1.2344 8.19413 1.48177 8.16201 1.73873L7.66063 5.74971H12.2498C12.4762 5.74971 12.6821 5.88064 12.7781 6.08562C12.8741 6.29059 12.8429 6.5326 12.698 6.70648L6.86464 13.7065C6.69886 13.9054 6.42177 13.9712 6.18423 13.8681C5.94669 13.765 5.80556 13.5176 5.83768 13.2607L6.33905 9.24971H1.74984C1.5235 9.24971 1.31759 9.11877 1.22158 8.9138C1.12558 8.70882 1.15681 8.46681 1.30172 8.29293L7.13505 1.29293C7.30083 1.094 7.57791 1.02817 7.81546 1.13128ZM2.99529 8.08304H6.99984C7.16716 8.08304 7.32643 8.15489 7.43716 8.28032C7.54789 8.40576 7.59943 8.5727 7.57867 8.73873L7.24213 11.4311L11.0044 6.91637H6.99984C6.83253 6.91637 6.67326 6.84453 6.56253 6.71909C6.4518 6.59366 6.40026 6.42671 6.42102 6.26069L6.75756 3.56831L2.99529 8.08304Z"
    fill="currentColor"
  />
</svg>
