<svg xmlns="http://www.w3.org/2000/svg" viewBox="0 0 66 57" fill="none">
  <path
    d="M10.1444 17.0774V36.9292C10.1444 37.3422 10.2067 37.6654 10.3313 37.8989C10.4737 38.1144 10.6962 38.267 10.9989 38.3568L12.2539 38.5992C12.6099 38.7429 12.7879 38.9763 12.7879 39.2995C12.7879 39.7664 12.5298 39.9999 12.0136 39.9999H2.988C2.73878 39.9999 2.54296 39.937 2.40054 39.8113C2.25813 39.6856 2.18692 39.515 2.18692 39.2995C2.18692 39.12 2.23142 38.9673 2.32043 38.8416C2.42725 38.7159 2.57856 38.6082 2.77438 38.5184L4.08282 38.276C4.38545 38.1862 4.59908 38.0425 4.72369 37.845C4.8483 37.6475 4.91061 37.3512 4.91061 36.9561V20.606C4.91061 20.2828 4.8572 20.0494 4.75039 19.9057C4.66138 19.762 4.50116 19.6633 4.26974 19.6094L2.58746 19.5825C2.39164 19.5106 2.24033 19.4209 2.13351 19.3131C2.0445 19.2054 2 19.0707 2 18.9091C2 18.7295 2.06231 18.5769 2.18692 18.4512C2.31153 18.3075 2.51625 18.1908 2.80108 18.101L7.92803 16.4848C8.30187 16.3412 8.5867 16.2514 8.78252 16.2155C8.97834 16.1796 9.16526 16.1616 9.34328 16.1616C9.61031 16.1616 9.80613 16.2514 9.93074 16.431C10.0732 16.5926 10.1444 16.8081 10.1444 17.0774ZM9.61031 22.5185L8.88933 21.6835L9.87733 20.7138C11.6041 18.9899 13.1885 17.7778 14.6304 17.0774C16.0902 16.3591 17.4876 16 18.8228 16C20.6742 16 22.1784 16.6016 23.3356 17.8047C24.4927 18.9899 25.0712 20.7497 25.0712 23.0841V36.9022C25.0712 37.3512 25.1336 37.6924 25.2582 37.9258C25.4006 38.1413 25.632 38.2939 25.9524 38.3837L27.0473 38.5992C27.3855 38.7608 27.5546 38.9943 27.5546 39.2995C27.5546 39.7664 27.2876 39.9999 26.7535 39.9999H17.9149C17.4164 39.9999 17.1672 39.7664 17.1672 39.2995C17.1672 38.9763 17.3452 38.7429 17.7013 38.5992L18.9296 38.3568C19.3034 38.249 19.5438 38.0784 19.6506 37.845C19.7752 37.5936 19.8375 37.2344 19.8375 36.7676V24.0538C19.8375 22.4556 19.4547 21.2435 18.6893 20.4175C17.9416 19.5914 16.9625 19.1784 15.752 19.1784C14.9153 19.1784 14.0608 19.376 13.1885 19.771C12.3162 20.1481 11.4172 20.7856 10.4915 21.6835L9.61031 22.5185ZM24.4037 22.3569L23.6827 21.5488L24.644 20.5522C26.175 18.936 27.5724 17.7778 28.8363 17.0774C30.1003 16.3591 31.3731 16 32.6548 16C34.4172 16 35.7969 16.5746 36.7938 17.7239C37.8085 18.8552 38.4583 20.5342 38.7431 22.7609L40.6123 36.8753C40.6657 37.3242 40.7547 37.6564 40.8793 37.8719C41.0217 38.0874 41.2443 38.2401 41.5469 38.3298L42.7285 38.6087C42.9065 38.6985 42.9265 38.7429 43.0155 38.8686C43.1223 38.9763 43.1758 39.12 43.1758 39.2995C43.1758 39.515 43.1045 39.6856 42.9621 39.8113C42.8375 39.937 42.6417 39.9999 42.3747 39.9999H33.3491C32.8507 39.9999 32.6014 39.7664 32.6014 39.2995C32.6014 38.9943 32.7795 38.7608 33.1355 38.5992L34.3638 38.3568C34.7377 38.267 34.9958 38.0964 35.1382 37.845C35.2984 37.5936 35.3518 37.2434 35.2984 36.7945L33.5894 24.0808C33.3758 22.4467 32.9575 21.2256 32.3344 20.4175C31.7113 19.5914 30.8213 19.1784 29.6641 19.1784C28.9699 19.1784 28.2667 19.367 27.5546 19.7441C26.8603 20.1032 26.0949 20.6868 25.2582 21.4949L24.4037 22.3569Z"
    fill="currentColor"
  />
  <path
    d="M43.4962 20.2155C43.0693 19.7855 43.0693 19.0883 43.4962 18.6583L45.8151 16.3225C46.242 15.8925 46.9341 15.8925 47.361 16.3225L49.6799 18.6583C50.1068 19.0883 50.1068 19.7855 49.6799 20.2155L47.361 22.5512C46.9341 22.9812 46.242 22.9812 45.8151 22.5512L43.4962 20.2155Z"
    fill="currentColor"
  />
</svg>
