<svg xmlns="http://www.w3.org/2000/svg" viewBox="0 0 13 8" fill="none">
  <path
    d="M1.97777 5.9998L5.44444 1.95536L8.33333 4.84425L11.2222 1.37758M7.75555 4.84425C7.75555 4.99749 7.81642 5.14445 7.92478 5.2528C8.03313 5.36115 8.18009 5.42203 8.33333 5.42203C8.48656 5.42203 8.63352 5.36115 8.74188 5.2528C8.85023 5.14445 8.91111 4.99749 8.91111 4.84425C8.91111 4.69101 8.85023 4.54405 8.74188 4.4357C8.63352 4.32734 8.48656 4.26647 8.33333 4.26647C8.18009 4.26647 8.03313 4.32734 7.92478 4.4357C7.81642 4.54405 7.75555 4.69101 7.75555 4.84425ZM4.86666 1.95536C4.86666 2.1086 4.92753 2.25556 5.03589 2.36391C5.14424 2.47227 5.2912 2.53314 5.44444 2.53314C5.59767 2.53314 5.74463 2.47227 5.85299 2.36391C5.96134 2.25556 6.02222 2.1086 6.02222 1.95536C6.02222 1.80212 5.96134 1.65516 5.85299 1.54681C5.74463 1.43846 5.59767 1.37758 5.44444 1.37758C5.2912 1.37758 5.14424 1.43846 5.03589 1.54681C4.92753 1.65516 4.86666 1.80212 4.86666 1.95536ZM1.39999 5.9998C1.39999 6.15304 1.46087 6.3 1.56922 6.40836C1.67758 6.51671 1.82454 6.57758 1.97777 6.57758C2.13101 6.57758 2.27797 6.51671 2.38632 6.40836C2.49468 6.3 2.55555 6.15304 2.55555 5.9998C2.55555 5.84657 2.49468 5.69961 2.38632 5.59125C2.27797 5.4829 2.13101 5.42203 1.97777 5.42203C1.82454 5.42203 1.67758 5.4829 1.56922 5.59125C1.46087 5.69961 1.39999 5.84657 1.39999 5.9998ZM10.6444 1.37758C10.6444 1.53082 10.7053 1.67778 10.8137 1.78613C10.922 1.89449 11.069 1.95536 11.2222 1.95536C11.3755 1.95536 11.5224 1.89449 11.6308 1.78613C11.7391 1.67778 11.8 1.53082 11.8 1.37758C11.8 1.22435 11.7391 1.07739 11.6308 0.969032C11.5224 0.860678 11.3755 0.799805 11.2222 0.799805C11.069 0.799805 10.922 0.860678 10.8137 0.969032C10.7053 1.07739 10.6444 1.22435 10.6444 1.37758Z"
    stroke="currentColor"
    stroke-width="1.2"
    stroke-linecap="round"
    stroke-linejoin="round"
  />
</svg>
