<svg xmlns="http://www.w3.org/2000/svg" viewBox="0 0 16 16" fill="none">
  <path
    d="M7.33329 2.66602H5.86663C4.74652 2.66602 4.18647 2.66602 3.75865 2.884C3.38232 3.07575 3.07636 3.38171 2.88461 3.75804C2.66663 4.18586 2.66663 4.74591 2.66663 5.86602V10.1327C2.66663 11.2528 2.66663 11.8128 2.88461 12.2407C3.07636 12.617 3.38232 12.9229 3.75865 13.1147C4.18647 13.3327 4.74652 13.3327 5.86663 13.3327H10.1333C11.2534 13.3327 11.8134 13.3327 12.2413 13.1147C12.6176 12.9229 12.9236 12.617 13.1153 12.2407C13.3333 11.8128 13.3333 11.2528 13.3333 10.1327V8.66602"
    stroke="currentColor"
    stroke-width="1.33333"
    stroke-linecap="round"
    stroke-linejoin="round"
  />
  <path
    d="M6 10.0002V8.27629C6 8.09949 6.07024 7.92989 6.19526 7.80489L11.5 2.50015C12.0523 1.94787 12.9477 1.94787 13.5 2.50015C14.0523 3.05243 14.0523 3.94786 13.5 4.50015L8.19527 9.80489C8.07027 9.92989 7.90067 10.0002 7.72387 10.0002H6Z"
    stroke="currentColor"
    stroke-width="1.33333"
    stroke-linecap="square"
    stroke-linejoin="round"
  />
</svg>
