<svg xmlns="http://www.w3.org/2000/svg" viewBox="0 0 14 15" fill="none">
  <path
    d="M6.40727 3.05139C6.22778 3.22339 5.97187 3.29849 5.72697 3.25586C5.57912 3.23013 5.42705 3.21672 5.27188 3.21672C3.81005 3.21672 2.625 4.40689 2.625 5.87505C2.625 6.69763 2.99702 7.43298 3.58131 7.92058C3.72927 8.04408 3.8265 8.21989 3.8523 8.41088C4.02762 9.70833 5.13503 10.7083 6.475 10.7083C7.11638 10.7083 7.70449 10.4792 8.16258 10.0981C8.34178 9.94895 8.58136 9.88589 8.81014 9.9304C8.98899 9.96517 9.17367 9.98343 9.36256 9.98343C10.9573 9.98343 12.2501 8.68504 12.2501 7.08338C12.2501 6.30427 11.9442 5.5969 11.4463 5.07585C11.3426 4.9673 11.274 4.82929 11.2501 4.68109C11.0269 3.30244 9.83587 2.25 8.40012 2.25C7.62737 2.25 6.92551 2.55487 6.40727 3.05139Z"
    stroke="currentColor"
    stroke-width="1.1"
    stroke-linejoin="round"
  />
  <path
    d="M3.49935 12.1667C3.49935 12.811 2.97701 13.3333 2.33268 13.3333C1.68835 13.3333 1.16602 12.811 1.16602 12.1667C1.16602 11.5223 1.68835 11 2.33268 11C2.97701 11 3.49935 11.5223 3.49935 12.1667Z"
    stroke="currentColor"
    stroke-width="1.1"
  />
</svg>
