<svg xmlns="http://www.w3.org/2000/svg" viewBox="0 0 17 17" fill="currentColor"><path d="M0.762431 0.636564C0.815065 0.711665 2.03403 2.4859 3.47124 4.5793C4.90846 6.67269 6.23774 8.60863 6.42523 8.88141C6.6127 9.15419 6.7661 9.38284 6.7661 9.38953C6.7661 9.39623 6.69628 9.48231 6.61096 9.58081C6.52564 9.67931 6.2853 9.95815 6.07692 10.2004C5.86851 10.4427 5.5172 10.8511 5.29621 11.1079C5.07524 11.3648 4.68648 11.8167 4.4323 12.1123C4.17813 12.4079 3.72106 12.9394 3.41658 13.2933C2.47489 14.388 2.33899 14.5461 1.62215 15.3811C1.23938 15.8269 0.872334 16.2531 0.806501 16.3283C0.740669 16.4035 0.686801 16.4729 0.686801 16.4825C0.686801 16.4938 0.927224 16.5 1.36418 16.5H2.04153L2.78622 15.6322C3.19581 15.1548 3.59984 14.685 3.68407 14.5881C3.86622 14.3786 5.25529 12.7623 5.37205 12.6241C5.41676 12.5711 5.48169 12.4958 5.51635 12.4567C5.55103 12.4175 5.82432 12.1 6.12366 11.7511C6.423 11.4022 6.67614 11.1082 6.68617 11.0977C6.69621 11.0873 6.85468 10.9029 7.03833 10.6881C7.22197 10.4732 7.3779 10.2974 7.38483 10.2974C7.39177 10.2974 8.33514 11.6632 9.48123 13.3326C10.6273 15.002 11.5855 16.3974 11.6105 16.4335L11.656 16.4992L13.9794 16.4996C15.8902 16.4999 16.3013 16.4959 16.294 16.4769C16.2863 16.4566 15.1731 14.8329 12.3172 10.6762C10.2613 7.68386 9.98791 7.28174 9.99575 7.26134C10.0034 7.2415 10.2834 6.91397 12.1244 4.77167C12.4402 4.40419 12.8756 3.89736 13.0918 3.64537C13.3081 3.39339 13.5264 3.13965 13.5771 3.0815C13.6277 3.02335 13.8938 2.7141 14.1684 2.39427C14.443 2.07445 14.9099 1.53101 15.2059 1.18664C15.5019 0.842273 15.755 0.546908 15.7682 0.530256C15.791 0.501762 15.7523 0.5 15.1044 0.5H14.4164L14.1104 0.856828C13.7031 1.33172 12.9669 2.18809 12.7578 2.43008C12.6655 2.537 12.5502 2.67138 12.5018 2.72869C12.4533 2.78599 12.3577 2.89674 12.2893 2.9748C12.2209 3.05286 11.8763 3.45374 11.5234 3.86564C11.1706 4.27753 10.877 4.6185 10.8711 4.62335C10.8652 4.62819 10.7896 4.71589 10.7031 4.81825C10.5518 4.99729 10.3978 5.17649 9.69168 5.99542C9.38173 6.35489 9.36583 6.37033 9.3397 6.33729C9.32467 6.31825 8.41632 4.99715 7.32116 3.40152L5.32997 0.50037L2.99836 0.500176L0.666748 0.5L0.762431 0.636564ZM2.58222 1.58796C2.59974 1.6147 3.03536 2.23921 3.55031 2.97577C4.52692 4.3727 8.36463 9.86539 10.8327 13.3987C11.6214 14.5278 12.2763 15.4615 12.2881 15.4737C12.3049 15.4911 12.5345 15.4949 13.3611 15.4913L14.4127 15.4868L11.6608 11.5485C10.1473 9.38238 7.95588 6.24626 6.79108 4.5793L4.67327 1.54846L3.61184 1.54391L2.55041 1.53937L2.58222 1.58796Z"/></svg>
