<svg xmlns="http://www.w3.org/2000/svg" viewBox="0 0 19 15" fill="none">
  <path
    d="M15.3202 1.6725C14.1495 1.12475 12.8977 0.72667 11.589 0.5C11.4283 0.790583 11.2405 1.18142 11.1111 1.49234C9.71987 1.28312 8.34148 1.28312 6.97588 1.49234C6.84644 1.18142 6.6544 0.790583 6.49224 0.5C5.18213 0.72667 3.92891 1.12621 2.7582 1.6754C0.39686 5.24369 -0.243259 8.72334 0.0768009 12.1536C1.64296 13.3232 3.16076 14.0336 4.65295 14.4986C5.02138 13.9915 5.34997 13.4525 5.63304 12.8844C5.09392 12.6795 4.57756 12.4267 4.08966 12.1333C4.21909 12.0374 4.34571 11.9371 4.46803 11.834C7.44387 13.2258 10.6772 13.2258 13.6175 11.834C13.7412 11.9371 13.8678 12.0374 13.9959 12.1333C13.5065 12.4282 12.9887 12.681 12.4496 12.8859C12.7327 13.4525 13.0599 13.993 13.4297 14.5C14.9233 14.0351 16.4425 13.3246 18.0087 12.1536C18.3843 8.17706 17.3672 4.72936 15.3202 1.6725ZM6.03846 10.044C5.14514 10.044 4.41254 9.21005 4.41254 8.19449C4.41254 7.17892 5.12949 6.34352 6.03846 6.34352C6.94744 6.34352 7.68001 7.17746 7.66437 8.19449C7.66578 9.21005 6.94744 10.044 6.03846 10.044ZM12.0471 10.044C11.1537 10.044 10.4212 9.21005 10.4212 8.19449C10.4212 7.17892 11.1381 6.34352 12.0471 6.34352C12.956 6.34352 13.6886 7.17746 13.673 8.19449C13.673 9.21005 12.956 10.044 12.0471 10.044Z"
    fill="currentColor"
  />
</svg>
