<svg xmlns="http://www.w3.org/2000/svg" viewBox="0 0 97 96" fill="none">
  <path
    d="M48.5107 57.2459L67.3772 89.8375L59.8192 94.1005L41.0016 61.5171L40.5134 60.6709L36.8524 62.7537L21.0775 71.7354L13.5195 58.7429L32.9555 47.6216L13.5195 14.2087L21.0775 9.9375L40.5134 43.4479L48.7629 38.6885L56.2395 34.3687L59.8192 32.3022L60.3643 33.2459L67.3772 45.2947L47.9412 56.2696L48.5107 57.2459Z"
    fill="currentColor"
    stroke="currentColor"
    stroke-width="0.813559"
    stroke-linecap="round"
    stroke-linejoin="round"
  />
  <path
    d="M41.0022 61.5181L37.3493 63.6008L21.0781 71.7364L36.853 62.7547L40.5141 60.6719L41.0022 61.5181Z"
    fill="currentColor"
    stroke="currentColor"
    stroke-width="0.813559"
    stroke-linecap="round"
    stroke-linejoin="round"
  />
  <path
    d="M83.6495 37.1595L67.3783 45.295L60.3654 33.2462L59.8203 32.3026L76.0915 24.167L83.6495 37.1595Z"
    fill="currentColor"
    stroke="currentColor"
    stroke-width="0.813559"
    stroke-linecap="round"
    stroke-linejoin="round"
  />
  <path
    d="M83.6485 81.7026L75.8709 85.5914L67.3773 89.8382L48.5109 57.2466L47.9414 56.2704L64.2126 48.1348L83.6485 81.7026Z"
    fill="currentColor"
    stroke="currentColor"
    stroke-width="0.813559"
    stroke-linecap="round"
    stroke-linejoin="round"
  />
  <path
    d="M83.6495 81.7021L76.0915 85.9652L59.8203 94.1008L67.3783 89.8377L75.8718 85.591L83.6495 81.7021Z"
    fill="currentColor"
    stroke="currentColor"
    stroke-width="0.813559"
    stroke-linecap="round"
    stroke-linejoin="round"
  />
  <path
    d="M83.6485 37.1602L64.2126 48.1351L47.9414 56.2707L67.3773 45.2957L83.6485 37.1602Z"
    fill="currentColor"
    stroke="currentColor"
    stroke-width="0.813559"
    stroke-linecap="round"
    stroke-linejoin="round"
  />
  <path
    d="M56.2402 34.3695L48.7635 38.6894L40.5141 43.4488L21.0781 9.93834L37.3493 1.80273L56.2402 34.3695Z"
    fill="currentColor"
    stroke="currentColor"
    stroke-width="0.813559"
    stroke-linecap="round"
    stroke-linejoin="round"
  />
</svg>
